<mxfile host="app.diagrams.net" agent="Mozilla/5.0 (Windows NT 10.0; Win64; x64) AppleWebKit/537.36 (KHTML, like Gecko) Chrome/138.0.0.0 Safari/537.36 Edg/138.0.0.0" version="27.2.0">
  <diagram name="Page-1" id="w_bXplx7KUwtYPAV5n7N">
    <mxGraphModel dx="2490" dy="1477" grid="0" gridSize="10" guides="1" tooltips="1" connect="1" arrows="1" fold="1" page="0" pageScale="1" pageWidth="1100" pageHeight="850" math="0" shadow="0">
      <root>
        <mxCell id="0" />
        <mxCell id="1" parent="0" />
        <mxCell id="oaeP4SAxHBfVACY-Gt0V-4" style="edgeStyle=none;curved=1;rounded=0;orthogonalLoop=1;jettySize=auto;html=1;entryX=0;entryY=0.5;entryDx=0;entryDy=0;fontSize=12;startSize=8;endSize=8;" edge="1" parent="1" source="Egebd539z2xT7Lu5Jw3A-1" target="oaeP4SAxHBfVACY-Gt0V-1">
          <mxGeometry relative="1" as="geometry" />
        </mxCell>
        <mxCell id="Egebd539z2xT7Lu5Jw3A-1" value="Critera determiner" style="rounded=0;whiteSpace=wrap;html=1;fillColor=#f8cecc;strokeColor=#b85450;" parent="1" vertex="1">
          <mxGeometry x="-109" y="341" width="120" height="60" as="geometry" />
        </mxCell>
        <mxCell id="oaeP4SAxHBfVACY-Gt0V-6" value="" style="edgeStyle=none;curved=1;rounded=0;orthogonalLoop=1;jettySize=auto;html=1;fontSize=12;startSize=8;endSize=8;" edge="1" parent="1" source="oaeP4SAxHBfVACY-Gt0V-1" target="oaeP4SAxHBfVACY-Gt0V-5">
          <mxGeometry relative="1" as="geometry" />
        </mxCell>
        <mxCell id="oaeP4SAxHBfVACY-Gt0V-1" value="critirea received" style="rounded=0;whiteSpace=wrap;html=1;" vertex="1" parent="1">
          <mxGeometry x="114" y="341" width="120" height="60" as="geometry" />
        </mxCell>
        <mxCell id="oaeP4SAxHBfVACY-Gt0V-2" value="policy with metris, demerits DB" style="shape=cylinder3;whiteSpace=wrap;html=1;boundedLbl=1;backgroundOutline=1;size=15;fillColor=#f8cecc;strokeColor=#b85450;" vertex="1" parent="1">
          <mxGeometry x="83" y="147" width="196" height="80" as="geometry" />
        </mxCell>
        <mxCell id="oaeP4SAxHBfVACY-Gt0V-3" value="" style="shape=flexArrow;endArrow=classic;startArrow=classic;html=1;rounded=0;fontSize=12;startSize=8;endSize=8;curved=1;entryX=0.5;entryY=1;entryDx=0;entryDy=0;entryPerimeter=0;exitX=0.5;exitY=0;exitDx=0;exitDy=0;" edge="1" parent="1" source="oaeP4SAxHBfVACY-Gt0V-1" target="oaeP4SAxHBfVACY-Gt0V-2">
          <mxGeometry width="100" height="100" relative="1" as="geometry">
            <mxPoint x="35" y="358" as="sourcePoint" />
            <mxPoint x="135" y="258" as="targetPoint" />
          </mxGeometry>
        </mxCell>
        <mxCell id="oaeP4SAxHBfVACY-Gt0V-5" value="Outputs 3 top policies with reasoning" style="whiteSpace=wrap;html=1;rounded=0;" vertex="1" parent="1">
          <mxGeometry x="354" y="341" width="120" height="60" as="geometry" />
        </mxCell>
        <mxCell id="oaeP4SAxHBfVACY-Gt0V-7" value="Reasoning LLM" style="text;html=1;align=center;verticalAlign=middle;resizable=0;points=[];autosize=1;strokeColor=none;fillColor=none;fontSize=16;" vertex="1" parent="1">
          <mxGeometry x="114" y="415" width="130" height="31" as="geometry" />
        </mxCell>
        <mxCell id="oaeP4SAxHBfVACY-Gt0V-8" value="Audio to 2.5 flash" style="text;html=1;align=center;verticalAlign=middle;resizable=0;points=[];autosize=1;strokeColor=none;fillColor=none;fontSize=16;" vertex="1" parent="1">
          <mxGeometry x="-117" y="415" width="142" height="31" as="geometry" />
        </mxCell>
        <mxCell id="oaeP4SAxHBfVACY-Gt0V-23" value="" style="edgeStyle=none;curved=1;rounded=0;orthogonalLoop=1;jettySize=auto;html=1;fontSize=12;startSize=8;endSize=8;" edge="1" parent="1" source="oaeP4SAxHBfVACY-Gt0V-9" target="oaeP4SAxHBfVACY-Gt0V-21">
          <mxGeometry relative="1" as="geometry" />
        </mxCell>
        <mxCell id="oaeP4SAxHBfVACY-Gt0V-9" value="" style="pointerEvents=1;verticalLabelPosition=bottom;shadow=0;dashed=0;align=center;html=1;verticalAlign=top;shape=mxgraph.electrical.electro-mechanical.loudspeaker;" vertex="1" parent="1">
          <mxGeometry x="-380" y="351" width="25" height="50" as="geometry" />
        </mxCell>
        <mxCell id="oaeP4SAxHBfVACY-Gt0V-11" value="" style="curved=1;endArrow=classic;html=1;rounded=0;fontSize=12;startSize=8;endSize=8;entryX=0.75;entryY=1;entryDx=0;entryDy=0;exitX=0.5;exitY=1;exitDx=0;exitDy=0;" edge="1" parent="1" source="oaeP4SAxHBfVACY-Gt0V-5" target="Egebd539z2xT7Lu5Jw3A-1">
          <mxGeometry width="50" height="50" relative="1" as="geometry">
            <mxPoint x="226.2" y="529" as="sourcePoint" />
            <mxPoint x="-251.00000000000006" y="504.5999999999999" as="targetPoint" />
            <Array as="points">
              <mxPoint x="446" y="563" />
              <mxPoint x="354" y="600" />
              <mxPoint x="249.2" y="666" />
              <mxPoint x="-115" y="630" />
            </Array>
          </mxGeometry>
        </mxCell>
        <mxCell id="oaeP4SAxHBfVACY-Gt0V-12" value="Agent" style="shape=umlActor;verticalLabelPosition=bottom;verticalAlign=top;html=1;outlineConnect=0;fillColor=#f8cecc;strokeColor=#b85450;" vertex="1" parent="1">
          <mxGeometry x="-406" y="217" width="30" height="60" as="geometry" />
        </mxCell>
        <mxCell id="oaeP4SAxHBfVACY-Gt0V-13" value="Client" style="shape=umlActor;verticalLabelPosition=bottom;verticalAlign=top;html=1;outlineConnect=0;" vertex="1" parent="1">
          <mxGeometry x="-486" y="343" width="30" height="60" as="geometry" />
        </mxCell>
        <mxCell id="oaeP4SAxHBfVACY-Gt0V-22" value="" style="edgeStyle=none;curved=1;rounded=0;orthogonalLoop=1;jettySize=auto;html=1;fontSize=12;startSize=8;endSize=8;" edge="1" parent="1" source="oaeP4SAxHBfVACY-Gt0V-21" target="Egebd539z2xT7Lu5Jw3A-1">
          <mxGeometry relative="1" as="geometry" />
        </mxCell>
        <mxCell id="oaeP4SAxHBfVACY-Gt0V-21" value="Speech to text" style="rounded=0;whiteSpace=wrap;html=1;" vertex="1" parent="1">
          <mxGeometry x="-280" y="343" width="120" height="60" as="geometry" />
        </mxCell>
        <mxCell id="oaeP4SAxHBfVACY-Gt0V-27" value="" style="endArrow=classic;html=1;rounded=0;fontSize=12;startSize=8;endSize=8;curved=1;entryX=0.5;entryY=0;entryDx=0;entryDy=0;exitX=0.5;exitY=0.5;exitDx=0;exitDy=0;exitPerimeter=0;dashed=1;dashPattern=8 8;fillColor=#f8cecc;strokeColor=#b85450;" edge="1" parent="1" source="oaeP4SAxHBfVACY-Gt0V-12" target="Egebd539z2xT7Lu5Jw3A-1">
          <mxGeometry width="50" height="50" relative="1" as="geometry">
            <mxPoint x="-47" y="515" as="sourcePoint" />
            <mxPoint x="3" y="465" as="targetPoint" />
          </mxGeometry>
        </mxCell>
        <mxCell id="oaeP4SAxHBfVACY-Gt0V-28" value="Template" style="edgeLabel;html=1;align=center;verticalAlign=middle;resizable=0;points=[];fontSize=12;" vertex="1" connectable="0" parent="oaeP4SAxHBfVACY-Gt0V-27">
          <mxGeometry x="0.1697" y="-1" relative="1" as="geometry">
            <mxPoint as="offset" />
          </mxGeometry>
        </mxCell>
        <mxCell id="oaeP4SAxHBfVACY-Gt0V-29" value="RAG + Indexing /" style="text;html=1;align=center;verticalAlign=middle;resizable=0;points=[];autosize=1;strokeColor=#82b366;fillColor=#d5e8d4;fontSize=16;" vertex="1" parent="1">
          <mxGeometry x="382" y="72" width="140" height="31" as="geometry" />
        </mxCell>
        <mxCell id="oaeP4SAxHBfVACY-Gt0V-30" value="CAG" style="text;html=1;align=center;verticalAlign=middle;resizable=0;points=[];autosize=1;strokeColor=#9673a6;fillColor=#e1d5e7;fontSize=16;" vertex="1" parent="1">
          <mxGeometry x="419" y="114" width="53" height="31" as="geometry" />
        </mxCell>
        <mxCell id="oaeP4SAxHBfVACY-Gt0V-31" value="Graph based DB" style="text;html=1;align=center;verticalAlign=middle;resizable=0;points=[];autosize=1;strokeColor=#d6b656;fillColor=#fff2cc;fontSize=16;" vertex="1" parent="1">
          <mxGeometry x="-323" y="147" width="137" height="31" as="geometry" />
        </mxCell>
        <mxCell id="oaeP4SAxHBfVACY-Gt0V-32" value="Vector embeddings" style="text;html=1;align=center;verticalAlign=middle;resizable=0;points=[];autosize=1;strokeColor=#82b366;fillColor=#d5e8d4;fontSize=16;" vertex="1" parent="1">
          <mxGeometry x="-327" y="87" width="155" height="31" as="geometry" />
        </mxCell>
        <mxCell id="oaeP4SAxHBfVACY-Gt0V-33" value="dataset : no issues&lt;br&gt;Criteria determination: pendowing&lt;div&gt;&lt;br&gt;&lt;/div&gt;" style="text;html=1;align=center;verticalAlign=middle;resizable=0;points=[];autosize=1;strokeColor=none;fillColor=none;fontSize=16;" vertex="1" parent="1">
          <mxGeometry x="-552.5" y="717.5" width="257" height="70" as="geometry" />
        </mxCell>
        <mxCell id="oaeP4SAxHBfVACY-Gt0V-34" value="Medi buddy DB" style="shape=cylinder3;whiteSpace=wrap;html=1;boundedLbl=1;backgroundOutline=1;size=15;fillColor=#f8cecc;strokeColor=#b85450;" vertex="1" parent="1">
          <mxGeometry x="136" y="44" width="196" height="80" as="geometry" />
        </mxCell>
        <mxCell id="oaeP4SAxHBfVACY-Gt0V-35" value="ICICI DB" style="shape=cylinder3;whiteSpace=wrap;html=1;boundedLbl=1;backgroundOutline=1;size=15;fillColor=#f8cecc;strokeColor=#b85450;" vertex="1" parent="1">
          <mxGeometry x="53" y="-68" width="196" height="80" as="geometry" />
        </mxCell>
        <mxCell id="oaeP4SAxHBfVACY-Gt0V-36" value="Star DB" style="shape=cylinder3;whiteSpace=wrap;html=1;boundedLbl=1;backgroundOutline=1;size=15;fillColor=#f8cecc;strokeColor=#b85450;" vertex="1" parent="1">
          <mxGeometry x="-102" y="34" width="196" height="80" as="geometry" />
        </mxCell>
        <mxCell id="oaeP4SAxHBfVACY-Gt0V-37" value="" style="shape=cylinder3;whiteSpace=wrap;html=1;boundedLbl=1;backgroundOutline=1;size=15;fillColor=none;" vertex="1" parent="1">
          <mxGeometry x="-119" y="-146" width="471" height="383" as="geometry" />
        </mxCell>
      </root>
    </mxGraphModel>
  </diagram>
</mxfile>
